<?xml version="1.0" encoding="utf-8"?>
<!-- Generator: Adobe Illustrator 25.1.0, SVG Export Plug-In . SVG Version: 6.00 Build 0)  -->
<svg version="1.1" id="Capa_1" xmlns="http://www.w3.org/2000/svg" xmlns:xlink="http://www.w3.org/1999/xlink" x="0px" y="0px"
	 viewBox="0 0 1080 1080" style="enable-background:new 0 0 1080 1080;" xml:space="preserve">
<style type="text/css">
	.st0{fill:#46A6FF;}
	.st1{fill:#FFFFFF;}
	.st2{fill:#FF7C00;}
</style>
<g>
	<g>
		<path class="st0" d="M257.18,103.21h276.16c52.02,0,94.18,49.52,94.18,110.6v109.35c0,61.08-42.17,110.6-94.18,110.6H309.3
			l-73.78,79.09v-82.03C193.95,419.33,163,375.49,163,323.16V213.81C163,152.73,205.16,103.21,257.18,103.21z"/>
		<path class="st1" d="M235.52,531.79c-2.2,0-4.41-0.53-6.51-1.61c-5.85-3.03-9.62-9.82-9.62-17.33v-67.97
			c-18.82-8.09-35.66-22.21-48.31-40.72c-15.62-22.87-24.22-51.63-24.22-81V213.81c0-34.6,11.47-67.13,32.31-91.6
			c20.84-24.47,48.54-37.94,78-37.94h276.16c29.47,0,57.17,13.47,78,37.94c20.83,24.47,32.31,57,32.31,91.6v109.35
			c0,34.6-11.47,67.13-32.31,91.6c-20.84,24.47-48.54,37.94-78,37.94H315.55l-69.16,74.14
			C243.37,530.09,239.47,531.79,235.52,531.79z M257.18,122.14c-43.04,0-78.06,41.12-78.06,91.67v109.35
			c0,21.08,5.92,40.89,17.13,57.3c10.89,15.94,26.15,27.28,42.97,31.93c7.28,2.01,12.43,9.65,12.43,18.43v39.1l46.78-50.15
			c2.97-3.19,6.85-4.95,10.87-4.95h224.04c43.04,0,78.06-41.12,78.06-91.67V213.81c0-50.54-35.02-91.67-78.06-91.67H257.18z"/>
	</g>
	<g>
		<path class="st2" d="M805.7,174.04H479.33c-61.47,0-111.31,58.52-111.31,130.71v129.22c0,72.19,49.83,130.71,111.31,130.71H744.1
			l87.19,93.47V561.2C880.43,547.63,917,495.82,917,433.97V304.75C917,232.56,867.17,174.04,805.7,174.04z"/>
		<path class="st1" d="M831.29,677.09c-3.95,0-7.84-1.7-10.88-4.95l-82.57-88.52H479.33c-34.04,0-66.04-15.57-90.11-43.83
			c-24.07-28.26-37.32-65.84-37.32-105.82V304.75c0-39.97,13.26-77.55,37.32-105.82c24.07-28.26,56.07-43.83,90.11-43.83H805.7
			c34.04,0,66.04,15.57,90.11,43.83c24.07,28.26,37.32,65.84,37.32,105.82v129.22c0,17.31-2.5,34.28-7.43,50.45
			c-4.76,15.62-11.68,30.13-20.55,43.12c-15.04,22.02-35.21,38.66-57.74,47.86v82.75c0,7.5-3.77,14.3-9.62,17.33
			C835.71,676.56,833.49,677.09,831.29,677.09z M479.33,192.98c-52.48,0-95.18,50.14-95.18,111.77v129.22
			c0,61.63,42.7,111.77,95.18,111.77H744.1c4.02,0,7.9,1.77,10.87,4.95l60.19,64.52V561.2c0-8.79,5.15-16.42,12.43-18.43
			c20.51-5.67,39.12-19.49,52.4-38.93c13.66-20,20.88-44.16,20.88-69.87V304.75c0-61.63-42.7-111.77-95.18-111.77H479.33z"/>
	</g>
	<g>
		<circle class="st1" cx="524.45" cy="364" r="33.92"/>
	</g>
	<g>
		<circle class="st1" cx="642.52" cy="364" r="33.92"/>
	</g>
	<g>
		<circle class="st1" cx="760.59" cy="364" r="33.92"/>
	</g>
	<g>
		<path class="st2" d="M128.36,648.42h146.15v61.65h-42.25v208.21h-62.06V710.08h-41.84V648.42z"/>
		<path class="st0" d="M446.33,854.61v64.08c-12.94,4.18-24.53,6.27-34.77,6.27c-35.44,0-64.18-13.31-86.21-39.92
			c-22.03-26.61-33.05-61.62-33.05-105.01c0-40.29,11.12-73.54,33.35-99.76c22.24-26.21,50.33-39.32,84.29-39.32
			c13.21,0,25.33,1.75,36.39,5.26v64.28c-11.72-3.91-22.78-5.86-33.15-5.86c-15.9,0-29.11,7.28-39.62,21.83
			c-10.51,14.55-15.77,33.08-15.77,55.59c0,24.26,5.29,43.43,15.87,57.51c10.58,14.08,24.69,21.12,42.35,21.12
			C424.63,860.67,434.74,858.65,446.33,854.61z"/>
		<path class="st0" d="M479.48,633.46h58.62v122.9h1.01c14.42-20.08,31.06-30.12,49.93-30.12c13.47,0,23.95,4.42,31.43,13.24
			c7.48,8.83,11.22,21.26,11.22,37.3v141.5h-58.82v-113.4c0-7.28-1.45-12.97-4.35-17.08c-2.9-4.11-6.91-6.17-12.03-6.17
			c-12.27,0-18.4,8.29-18.4,24.86v111.78h-58.62V633.46z"/>
		<path class="st0" d="M767.54,918.28v-24.46h-0.81c-7.14,10.51-14.05,18.26-20.72,23.25c-6.67,4.98-14.52,7.48-23.55,7.48
			c-17.66,0-31.74-9.03-42.25-27.09c-10.51-18.06-15.77-42.58-15.77-73.58c0-29.78,5.32-53.5,15.97-71.15
			c10.64-17.65,24.66-26.48,42.05-26.48c9.3,0,17.18,2.33,23.65,6.97c6.47,4.65,13.21,12.1,20.21,22.34h0.81v-23.25h58.82v185.97
			H767.54z M767.54,824.29c0-30.86-7.55-46.29-22.64-46.29c-15.23,0-22.84,15.43-22.84,46.29c0,32.07,7.88,48.11,23.65,48.11
			C760.26,872.4,767.54,856.36,767.54,824.29z"/>
		<path class="st0" d="M878.11,682.79h58.82v49.52h22.84v48.92h-23.25v137.05h-58.42V780.83h-22.24v-48.51h22.24V682.79z"/>
	</g>
</g>
</svg>
