<?xml version="1.0" encoding="UTF-8"?>
<svg version="1.1" xmlns="http://www.w3.org/2000/svg" width="32" height="32">
<path d="M0 0 C10.56 0 21.12 0 32 0 C32 10.56 32 21.12 32 32 C21.44 32 10.88 32 0 32 C0 21.44 0 10.88 0 0 Z " fill="#FAFBFD" transform="translate(0,0)"/>
<path d="M0 0 C3.63 0 7.26 0 11 0 C11.33 0.66 11.66 1.32 12 2 C12.99 1.34 13.98 0.68 15 0 C18.125 0.25 18.125 0.25 21 1 C21.33 1.66 21.66 2.32 22 3 C20 5 20 5 17.4375 5.0625 C16.2309375 5.0315625 16.2309375 5.0315625 15 5 C13.59567064 6.17718985 13.59567064 6.17718985 13.875 9.5 C13.59567064 12.82281015 13.59567064 12.82281015 15 14 C16.99958364 14.04080783 19.00045254 14.04254356 21 14 C21 15.32 21 16.64 21 18 C15.63247863 19.34188034 15.63247863 19.34188034 12.6875 17.75 C9.13768919 14.06871471 9.92173399 9.77422632 10 5 C9.01 4.67 8.02 4.34 7 4 C7 8.95 7 13.9 7 19 C5.68 18.67 4.36 18.34 3 18 C3 13.38 3 8.76 3 4 C2.01 4 1.02 4 0 4 C0 2.68 0 1.36 0 0 Z " fill="#286099" transform="translate(3,2)"/>
<path d="M0 0 C0.99 0 1.98 0 3 0 C3.66 3.3 4.32 6.6 5 10 C3.35 10.66 1.7 11.32 0 12 C0 12.66 0 13.32 0 14 C-5.94 14 -11.88 14 -18 14 C-16.68 13.67 -15.36 13.34 -14 13 C-14.33 12.34 -14.66 11.68 -15 11 C-17.97 11 -20.94 11 -24 11 C-24.33 9.35 -24.66 7.7 -25 6 C-22.40470979 6 -19.80912707 6.03318222 -17.21484375 6.10546875 C-15.78907033 6.13321782 -14.36328875 6.1605499 -12.9375 6.1875 C-12.21755859 6.21263672 -11.49761719 6.23777344 -10.75585938 6.26367188 C-6.63130694 6.39776138 -6.63130694 6.39776138 -3.12890625 4.48828125 C-2.75636719 3.99714844 -2.38382813 3.50601562 -2 3 C-1.34 3 -0.68 3 0 3 C0 2.01 0 1.02 0 0 Z " fill="#E4E8EC" transform="translate(26,16)"/>
<path d="M0 0 C0.99 0 1.98 0 3 0 C3.66 3.3 4.32 6.6 5 10 C4.01 10.495 4.01 10.495 3 11 C2.67 10.01 2.34 9.02 2 8 C1.67 8.66 1.34 9.32 1 10 C-6.41176471 11.29411765 -6.41176471 11.29411765 -9 10 C-9 9.01 -9 8.02 -9 7 C-8.401875 6.896875 -7.80375 6.79375 -7.1875 6.6875 C-4.70138466 5.90614947 -3.77056558 4.85104584 -2 3 C-1.34 3 -0.68 3 0 3 C0 2.01 0 1.02 0 0 Z " fill="#A2BAD2" transform="translate(26,16)"/>
<path d="M0 0 C0.99 0 1.98 0 3 0 C3.22786458 2.05078125 3.45572917 4.1015625 3.68359375 6.15234375 C3.81886614 8.01140229 3.81886614 8.01140229 5 9 C6.99958364 9.04080783 9.00045254 9.04254356 11 9 C11 10.32 11 11.64 11 13 C5.63247863 14.34188034 5.63247863 14.34188034 2.6875 12.75 C-0.86231081 9.06871471 -0.07826601 4.77422632 0 0 Z " fill="#245D97" transform="translate(13,7)"/>
<path d="M0 0 C5 0 10 0 15 0 C13.85546875 1.953125 13.85546875 1.953125 12 4 C9.30078125 4.609375 9.30078125 4.609375 6.3125 4.75 C5.31863281 4.80671875 4.32476562 4.8634375 3.30078125 4.921875 C2.16189453 4.96054687 2.16189453 4.96054687 1 5 C0.67 3.35 0.34 1.7 0 0 Z " fill="#A3BAD2" transform="translate(1,22)"/>
<path d="M0 0 C1.32 0.33 2.64 0.66 4 1 C4 6.61 4 12.22 4 18 C3.67 18 3.34 18 3 18 C3 13.38 3 8.76 3 4 C2.01 4 1.02 4 0 4 C0 2.68 0 1.36 0 0 Z " fill="#799BBF" transform="translate(3,2)"/>
<path d="M0 0 C0.99 0 1.98 0 3 0 C3 2.97 3 5.94 3 9 C2.01 8.67 1.02 8.34 0 8 C0 5.36 0 2.72 0 0 Z " fill="#13518F" transform="translate(13,7)"/>
<path d="M0 0 C1.65 0 3.3 0 5 0 C5.33 0.99 5.66 1.98 6 3 C4.02 3.33 2.04 3.66 0 4 C0 2.68 0 1.36 0 0 Z " fill="#EDEFF1" transform="translate(6,26)"/>
<path d="M0 0 C1.625 2 1.625 2 3 4 C-1.75 5.125 -1.75 5.125 -4 4 C-4 3.01 -4 2.02 -4 1 C-2 0 -2 0 0 0 Z " fill="#ABC2D7" transform="translate(21,22)"/>
<path d="M0 0 C-0.33 0.99 -0.66 1.98 -1 3 C-3.97 2.505 -3.97 2.505 -7 2 C-7 1.34 -7 0.68 -7 0 C-3.86650268 -1.04449911 -3.01031744 -0.93423645 0 0 Z " fill="#97B2CD" transform="translate(28,23)"/>
</svg>
